<svg xmlns="http://www.w3.org/2000/svg" id="Capa_1" data-name="Capa 1" viewBox="178.73 71 442.54 206.01"><defs><style>.cls-1{fill:#1d1d1b;}.cls-2{fill:none;stroke:#1d1d1b;stroke-miterlimit:10;stroke-width:4px;}</style></defs><path d="M261.74,101.06H271V184.7h35.58v8.92H261.74Z"/><path d="M439.37,119,432,124.53a39.32,39.32,0,0,0-14.45-11.89,42.71,42.71,0,0,0-18.57-4,41.19,41.19,0,0,0-20.53,5.3,38.23,38.23,0,0,0-14.64,14.26,39.44,39.44,0,0,0-5.21,20.19q0,16.92,11.61,27.25T399.49,186Q419,186,432,170.72l7.36,5.55a46.68,46.68,0,0,1-17.29,13.61,54.27,54.27,0,0,1-23.09,4.8q-24.35,0-38.38-16.16a46.21,46.21,0,0,1-11.74-31q0-20.28,14.26-34.2T398.8,99.44a52.36,52.36,0,0,1,23.44,5.15A45.44,45.44,0,0,1,439.37,119Z"/><path d="M489.68,101.06h18.41q15.92,0,21.4,1.38a23.81,23.81,0,0,1,13,8q5,6.06,5,15.29t-4.9,15.2a24,24,0,0,1-13.51,8.08q-6.3,1.5-23.53,1.5h-6.62v43.06h-9.23Zm9.23,9v31.46l15.73.19q9.42,0,13.83-1.72a14.15,14.15,0,0,0,6.92-5.62,15.86,15.86,0,0,0,0-17.19,13.93,13.93,0,0,0-6.64-5.5q-4.12-1.62-13.48-1.62Z"/><path class="cls-1" d="M261.74,101.06H271V184.7h35.58v8.92H261.74Z"/><path class="cls-1" d="M439.37,119,432,124.53a39.32,39.32,0,0,0-14.45-11.89,42.71,42.71,0,0,0-18.57-4,41.19,41.19,0,0,0-20.53,5.3,38.23,38.23,0,0,0-14.64,14.26,39.44,39.44,0,0,0-5.21,20.19q0,16.92,11.61,27.25T399.49,186Q419,186,432,170.72l7.36,5.55a46.68,46.68,0,0,1-17.29,13.61,54.27,54.27,0,0,1-23.09,4.8q-24.35,0-38.38-16.16a46.21,46.21,0,0,1-11.74-31q0-20.28,14.26-34.2T398.8,99.44a52.36,52.36,0,0,1,23.44,5.15A45.44,45.44,0,0,1,439.37,119Z"/><path class="cls-1" d="M489.68,101.06h18.41q15.92,0,21.4,1.38a23.81,23.81,0,0,1,13,8q5,6.06,5,15.29t-4.9,15.2a24,24,0,0,1-13.51,8.08q-6.3,1.5-23.53,1.5h-6.62v43.06h-9.23Zm9.23,9v31.46l15.73.19q9.42,0,13.83-1.72a14.15,14.15,0,0,0,6.92-5.62,15.86,15.86,0,0,0,0-17.19,13.93,13.93,0,0,0-6.64-5.5q-4.12-1.62-13.48-1.62Z"/><line class="cls-2" x1="180.73" y1="73" x2="619.27" y2="73"/><line class="cls-2" x1="180.73" y1="224.15" x2="619.27" y2="224.15"/><path class="cls-1" d="M200.24,256.35h2V274.8h7.85v2h-9.9Z"/><path class="cls-1" d="M220.71,261a7.49,7.49,0,0,1,5.78,2.52,7.77,7.77,0,0,1,2.12,5.47q0,7.81,0,7.94h-2.05V273.5q-1.6,3-5.85,3.36A7.39,7.39,0,0,1,215,274.5a8.1,8.1,0,0,1-.11-11A7.47,7.47,0,0,1,220.71,261Zm0,1.9a5.56,5.56,0,0,0-4.14,1.79,6,6,0,0,0-1.74,4.33,6.17,6.17,0,0,0,.89,3.15,6.83,6.83,0,0,0,3,2.56q5.31,1.18,7.56-4.83a10.28,10.28,0,0,0-.42-3.69,5.8,5.8,0,0,0-1.06-1.52A5.44,5.44,0,0,0,220.71,262.9Z"/><path class="cls-1" d="M234.13,273.92a10.6,10.6,0,0,1-1.49-4.06V255.55h1.93V264a8.19,8.19,0,0,1,2.74-2.24,7.52,7.52,0,0,1,3.32-.74,7.39,7.39,0,0,1,5.47,2.33,7.79,7.79,0,0,1,2.27,5.64,7.62,7.62,0,0,1-2.29,5.58,7.46,7.46,0,0,1-5.5,2.31,8.42,8.42,0,0,1-3.47-.71A8.61,8.61,0,0,1,234.13,273.92Zm6.28,1.08a5.82,5.82,0,0,0,3-.8A5.94,5.94,0,0,0,245.6,272a6.09,6.09,0,0,0,.81-3.06,6.16,6.16,0,0,0-.82-3.06,5.86,5.86,0,0,0-2.2-2.27,5.75,5.75,0,0,0-2.95-.81,6,6,0,0,0-3,.81,5.58,5.58,0,0,0-2.2,2.19,6.17,6.17,0,0,0-.78,3.09,6,6,0,0,0,1.74,4.39A5.71,5.71,0,0,0,240.41,275Z"/><path class="cls-1" d="M259.93,261a7.49,7.49,0,0,1,5.78,2.52,7.9,7.9,0,0,1,2.08,5.47,7.81,7.81,0,0,1-2.2,5.51,8,8,0,0,1-11.32,0,8.09,8.09,0,0,1-.12-11A7.47,7.47,0,0,1,259.93,261Zm0,1.9a5.57,5.57,0,0,0-4.14,1.79,6,6,0,0,0-1.74,4.33,6.28,6.28,0,0,0,.79,3.06,5.59,5.59,0,0,0,2.15,2.19,5.83,5.83,0,0,0,2.94.76,5.92,5.92,0,0,0,3-.76,5.61,5.61,0,0,0,2.13-2.19,6.27,6.27,0,0,0,.78-3.06,6,6,0,0,0-1.73-4.33A5.6,5.6,0,0,0,259.93,262.9Z"/><path class="cls-1" d="M271.16,269.94v-1.82a8.09,8.09,0,0,1,.64-2.22,7.37,7.37,0,0,1,2.59-3.47,5.23,5.23,0,0,1,2.69-1.1,3.42,3.42,0,0,1,1.71.53l-1,1.62a2.34,2.34,0,0,0-2.54.76,6.69,6.69,0,0,0-1.75,2.67,21.67,21.67,0,0,0-.35,4.8v5.11h-2Z"/><path class="cls-1" d="M288.11,261a7.49,7.49,0,0,1,5.78,2.52A7.77,7.77,0,0,1,296,269q0,7.81,0,7.94H294V273.5q-1.6,3-5.85,3.36a7.35,7.35,0,0,1-5.66-2.36,8.09,8.09,0,0,1-.12-11A7.47,7.47,0,0,1,288.11,261Zm0,1.9a5.56,5.56,0,0,0-4.14,1.79,6,6,0,0,0-1.74,4.33,6.17,6.17,0,0,0,.89,3.15,6.88,6.88,0,0,0,3,2.56q5.31,1.18,7.56-4.83a10.28,10.28,0,0,0-.42-3.69,5.8,5.8,0,0,0-1.06-1.52A5.44,5.44,0,0,0,288.11,262.9Z"/><path class="cls-1" d="M306.37,276.33a7,7,0,0,1-2.7.53,4.23,4.23,0,0,1-3.53-2.31,5.83,5.83,0,0,1-.75-3V255.84h1.95v7.3h3.59v1.66h-3.58v6.39a4.13,4.13,0,0,0,1.6,3.65,3,3,0,0,0,2.81-.13C306,275.4,306.21,275.94,306.37,276.33Z"/><path class="cls-1" d="M317.13,261a7.49,7.49,0,0,1,5.78,2.52A7.9,7.9,0,0,1,325,269a7.81,7.81,0,0,1-2.2,5.51,8,8,0,0,1-11.32,0,8.09,8.09,0,0,1-.12-11A7.47,7.47,0,0,1,317.13,261Zm0,1.9a5.56,5.56,0,0,0-4.14,1.79,6,6,0,0,0-1.74,4.33,6.28,6.28,0,0,0,.79,3.06,5.64,5.64,0,0,0,2.14,2.19,6.14,6.14,0,0,0,5.92,0,5.52,5.52,0,0,0,2.12-2.19A6.18,6.18,0,0,0,323,269a6,6,0,0,0-1.73-4.33A5.6,5.6,0,0,0,317.13,262.9Z"/><path class="cls-1" d="M328.36,269.94v-1.82a8.09,8.09,0,0,1,.64-2.22,7.37,7.37,0,0,1,2.59-3.47,5.23,5.23,0,0,1,2.69-1.1,3.42,3.42,0,0,1,1.71.53l-1,1.62a2.34,2.34,0,0,0-2.54.76,6.69,6.69,0,0,0-1.75,2.67,21.67,21.67,0,0,0-.35,4.8v5.11h-2Z"/><path class="cls-1" d="M338.85,255.54A1.58,1.58,0,0,1,340,256a1.53,1.53,0,0,1,.47,1.13,1.6,1.6,0,0,1-1.61,1.61,1.53,1.53,0,0,1-1.13-.47,1.58,1.58,0,0,1-.46-1.14,1.57,1.57,0,0,1,1.59-1.59Zm-1,6.21h1.94v15.1h-1.94Z"/><path class="cls-1" d="M351.52,261a7.49,7.49,0,0,1,5.78,2.52,7.9,7.9,0,0,1,2.08,5.47,7.81,7.81,0,0,1-2.2,5.51,8,8,0,0,1-11.33,0,8.1,8.1,0,0,1-.11-11A7.47,7.47,0,0,1,351.52,261Zm0,1.9a5.6,5.6,0,0,0-4.15,1.79,6,6,0,0,0-1.73,4.33,6.18,6.18,0,0,0,.79,3.06,5.57,5.57,0,0,0,2.14,2.19,6.14,6.14,0,0,0,5.92,0,5.52,5.52,0,0,0,2.12-2.19,6.18,6.18,0,0,0,.79-3.06,6,6,0,0,0-1.74-4.33A5.57,5.57,0,0,0,351.52,262.9Z"/><path class="cls-1" d="M390.93,260.31l-1.62,1.22a8.64,8.64,0,0,0-3.19-2.63A9.42,9.42,0,0,0,382,258a9,9,0,0,0-4.54,1.18,8.38,8.38,0,0,0-3.22,3.14,8.66,8.66,0,0,0-1.15,4.45,7.63,7.63,0,0,0,2.56,6,9.35,9.35,0,0,0,6.45,2.28,9.07,9.07,0,0,0,7.18-3.36l1.62,1.23a10.39,10.39,0,0,1-3.81,3A11.89,11.89,0,0,1,382,277a10.63,10.63,0,0,1-8.47-3.57,10.46,10.46,0,0,1,.56-14.37A10.77,10.77,0,0,1,382,256a11.48,11.48,0,0,1,5.17,1.14A10,10,0,0,1,390.93,260.31Z"/><path class="cls-1" d="M394.92,255.91h2v20.94h-2Z"/><path class="cls-1" d="M403.06,254.31h3l-4.11,4.27H400Zm-1.93,7.08h2v15.1h-2Z"/><path class="cls-1" d="M408.61,271.12l0-1.61a10.28,10.28,0,0,1,.09-2,7.25,7.25,0,0,1,1.33-3.81,8.23,8.23,0,0,1,2-1.64,9.3,9.3,0,0,1,3.9-.69,6.15,6.15,0,0,1,3.16.86,4.91,4.91,0,0,1,2.07,2.31,12.46,12.46,0,0,1,.62,4.55v7.77h-1.93v-7.2a17.36,17.36,0,0,0-.22-3.5,3.19,3.19,0,0,0-1.36-2.13,6,6,0,0,0-3-.62,5.15,5.15,0,0,0-3.14,1,3,3,0,0,0-1.28,2.78,21.71,21.71,0,0,0-.26,4.11v5.54h-1.95Z"/><path class="cls-1" d="M427.12,255.54a1.6,1.6,0,0,1,1.14,2.73,1.55,1.55,0,0,1-1.14.47,1.51,1.51,0,0,1-1.13-.47,1.59,1.59,0,0,1-.47-1.14A1.56,1.56,0,0,1,426,256,1.54,1.54,0,0,1,427.12,255.54Zm-1,6.21h1.94v15.1h-1.94Z"/><path class="cls-1" d="M447.3,264.53l-1.54,1a6.44,6.44,0,0,0-5.45-2.67,6.27,6.27,0,0,0-4.59,1.78,5.78,5.78,0,0,0-1.83,4.32,6.19,6.19,0,0,0,.84,3.12,5.88,5.88,0,0,0,2.3,2.26,6.78,6.78,0,0,0,3.28.8,6.65,6.65,0,0,0,5.45-2.64l1.54,1a7.19,7.19,0,0,1-2.91,2.51,9.28,9.28,0,0,1-4.16.89,8.18,8.18,0,0,1-5.93-2.27,7.37,7.37,0,0,1-2.36-5.52,8,8,0,0,1,4.14-7,8.71,8.71,0,0,1,4.31-1.06,9.15,9.15,0,0,1,2.89.46,8,8,0,0,1,2.37,1.19A6.41,6.41,0,0,1,447.3,264.53Z"/><path class="cls-1" d="M458.69,261a7.49,7.49,0,0,1,5.78,2.52,8.11,8.11,0,0,1-.12,11,8,8,0,0,1-11.33,0,8.1,8.1,0,0,1-.11-11A7.47,7.47,0,0,1,458.69,261Zm0,1.9a5.6,5.6,0,0,0-4.15,1.79,6,6,0,0,0-1.73,4.33,6.18,6.18,0,0,0,.79,3.06,5.57,5.57,0,0,0,2.14,2.19,6.12,6.12,0,0,0,5.91,0,5.48,5.48,0,0,0,2.13-2.19,6.28,6.28,0,0,0,.79-3.06,6,6,0,0,0-1.74-4.33A5.59,5.59,0,0,0,458.69,262.9Z"/><path class="cls-1" d="M479.06,256.35h4.06a23.87,23.87,0,0,1,4.73.3,5.33,5.33,0,0,1,2.86,1.78,5.72,5.72,0,0,1,0,6.72,5.3,5.3,0,0,1-3,1.79,26.68,26.68,0,0,1-5.19.33H481.1v9.5h-2Zm2,2v6.94l3.47,0a8.85,8.85,0,0,0,3.05-.38,3.07,3.07,0,0,0,1.53-1.24,3.54,3.54,0,0,0,0-3.79,3,3,0,0,0-1.47-1.21,8.82,8.82,0,0,0-3-.36Z"/><path class="cls-1" d="M503.22,261a7.49,7.49,0,0,1,5.78,2.52,7.9,7.9,0,0,1,2.08,5.47,7.81,7.81,0,0,1-2.2,5.51,8,8,0,0,1-11.32,0,8.09,8.09,0,0,1-.12-11A7.47,7.47,0,0,1,503.22,261Zm0,1.9a5.57,5.57,0,0,0-4.14,1.79,6,6,0,0,0-1.74,4.33,6.28,6.28,0,0,0,.79,3.06,5.59,5.59,0,0,0,2.15,2.19,5.83,5.83,0,0,0,2.94.76,5.92,5.92,0,0,0,3-.76,5.61,5.61,0,0,0,2.13-2.19,6.27,6.27,0,0,0,.78-3.06,6,6,0,0,0-1.73-4.33A5.6,5.6,0,0,0,503.22,262.9Z"/><path class="cls-1" d="M515.18,271.12l0-1.61a10.28,10.28,0,0,1,.09-2,7.17,7.17,0,0,1,1.33-3.81,8.23,8.23,0,0,1,2-1.64,9.28,9.28,0,0,1,3.89-.69,6.16,6.16,0,0,1,3.17.86,5,5,0,0,1,2.07,2.31,12.46,12.46,0,0,1,.62,4.55v7.77h-1.93v-7.2a17.36,17.36,0,0,0-.22-3.5,3.23,3.23,0,0,0-1.36-2.13,6,6,0,0,0-3-.62,5.15,5.15,0,0,0-3.14,1,3,3,0,0,0-1.28,2.78,21.71,21.71,0,0,0-.26,4.11v5.54h-2Z"/><path class="cls-1" d="M533.7,255.54a1.6,1.6,0,0,1,1.14,2.73,1.55,1.55,0,0,1-1.14.47,1.51,1.51,0,0,1-1.13-.47,1.59,1.59,0,0,1-.47-1.14,1.56,1.56,0,0,1,.47-1.13A1.54,1.54,0,0,1,533.7,255.54Zm-1,6.21h1.94v15.1h-1.94Z"/><path class="cls-1" d="M551.94,271.48l1.63.87a8.56,8.56,0,0,1-1.85,2.54,7.28,7.28,0,0,1-2.38,1.47,8.48,8.48,0,0,1-3,.5,7.21,7.21,0,0,1-5.77-2.41A8.18,8.18,0,0,1,538.5,269a8,8,0,0,1,1.77-5.12,7.18,7.18,0,0,1,6-2.87,7.43,7.43,0,0,1,6.16,2.94,8.08,8.08,0,0,1,1.65,5.14H540.5a6.19,6.19,0,0,0,1.68,4.33,5.33,5.33,0,0,0,4,1.69,6.39,6.39,0,0,0,2.24-.41,5.94,5.94,0,0,0,1.85-1.06A9.17,9.17,0,0,0,551.94,271.48Zm0-4.06a6.39,6.39,0,0,0-1.13-2.49,5.3,5.3,0,0,0-2-1.5,6,6,0,0,0-2.57-.57,5.56,5.56,0,0,0-3.82,1.43,6.48,6.48,0,0,0-1.74,3.13Z"/><path class="cls-1" d="M558.2,271.12l0-1.61a10.28,10.28,0,0,1,.09-2,7.25,7.25,0,0,1,1.32-3.81,8.46,8.46,0,0,1,2-1.64,9.28,9.28,0,0,1,3.89-.69,6.1,6.1,0,0,1,3.16.86,4.93,4.93,0,0,1,2.08,2.31,12.46,12.46,0,0,1,.62,4.55v7.77h-1.93v-7.2a17.36,17.36,0,0,0-.22-3.5,3.23,3.23,0,0,0-1.36-2.13,6,6,0,0,0-3-.62,5.13,5.13,0,0,0-3.14,1,3,3,0,0,0-1.28,2.78,21.71,21.71,0,0,0-.26,4.11v5.54h-2Z"/><path class="cls-1" d="M582.09,276.33a7,7,0,0,1-2.7.53,4.22,4.22,0,0,1-3.52-2.31,5.74,5.74,0,0,1-.76-3V255.84h1.95v7.3h3.6v1.66h-3.58v6.39a4.1,4.1,0,0,0,1.59,3.65,3,3,0,0,0,2.81-.13C581.73,275.4,581.93,275.94,582.09,276.33Z"/><path class="cls-1" d="M598.43,271.48l1.62.87a8.37,8.37,0,0,1-1.84,2.54,7.28,7.28,0,0,1-2.38,1.47,8.48,8.48,0,0,1-3,.5,7.21,7.21,0,0,1-5.77-2.41A8.18,8.18,0,0,1,585,269a8,8,0,0,1,1.77-5.12,7.18,7.18,0,0,1,6-2.87,7.43,7.43,0,0,1,6.16,2.94,8.08,8.08,0,0,1,1.65,5.14H587a6.19,6.19,0,0,0,1.68,4.33,5.33,5.33,0,0,0,4,1.69,6.39,6.39,0,0,0,2.24-.41,6.06,6.06,0,0,0,1.85-1.06A9.17,9.17,0,0,0,598.43,271.48Zm0-4.06a6.39,6.39,0,0,0-1.13-2.49,5.3,5.3,0,0,0-2-1.5,6,6,0,0,0-2.57-.57,5.56,5.56,0,0,0-3.82,1.43,6.48,6.48,0,0,0-1.74,3.13Z"/></svg>